{
  "accessors": [
    {
      "bufferView": 2,
      "componentType": 5126,
      "count": 8288,
      "max": [
        0.9989079833030701,
        1.0,
        0.9990881085395813
      ],
      "min": [
        -0.9989071488380432,
        -1.0,
        -0.9990887641906738
      ],
      "type": "VEC3"
    },
    {
      "bufferView": 2,
      "byteOffset": 99456,
      "componentType": 5126,
      "count": 8288,
      "max": [
        0.9983566999435425,
        0.9987607002258301,
        0.9985941648483276
      ],
      "min": [
        -0.998356819152832,
        -0.9987607598304749,
        -0.9985939264297485
      ],
      "type": "VEC3"
    },
    {
      "bufferView": 1,
      "componentType": 5126,
      "count": 8288,
      "max": [
        1.0000001192092896,
        1.0
      ],
      "min": [
        0.0,
        0.0
      ],
      "type": "VEC2"
    },
    {
      "bufferView": 0,
      "componentType": 5125,
      "count": 12096,
      "type": "SCALAR"
    },
    {
      "bufferView": 2,
      "byteOffset": 198912,
      "componentType": 5126,
      "count": 1403,
      "max": [
        1.0399999618530273,
        0.039592865854501724,
        1.0399999618530273
      ],
      "min": [
        -1.0399999618530273,
        -0.039592865854501724,
        -1.0399999618530273
      ],
      "type": "VEC3"
    },
    {
      "bufferView": 2,
      "byteOffset": 215748,
      "componentType": 5126,
      "count": 1403,
      "max": [
        1.0,
        0.990484356880188,
        1.0
      ],
      "min": [
        -1.0,
        -0.990484356880188,
        -1.0
      ],
      "type": "VEC3"
    },
    {
      "bufferView": 1,
      "byteOffset": 66304,
      "componentType": 5126,
      "count": 1403,
      "max": [
        1.0,
        1.0
      ],
      "min": [
        1.5543122344752192e-15,
        -4.440892098500626e-16
      ],
      "type": "VEC2"
    },
    {
      "bufferView": 0,
      "byteOffset": 48384,
      "componentType": 5125,
      "count": 7920,
      "type": "SCALAR"
    },
    {
      "bufferView": 2,
      "byteOffset": 232584,
      "componentType": 5126,
      "count": 1138,
      "max": [
        0.9965840578079224,
        1.0,
        0.9965838193893433
      ],
      "min": [
        -0.9965835213661194,
        -1.0,
        -0.9965844750404358
      ],
      "type": "VEC3"
    },
    {
      "bufferView": 2,
      "byteOffset": 246240,
      "componentType": 5126,
      "count": 1138,
      "max": [
        0.9966067671775818,
        1.0,
        0.9966067671775818
      ],
      "min": [
        -0.9966067671775818,
        -1.0,
        -0.9966067671775818
      ],
      "type": "VEC3"
    },
    {
      "bufferView": 1,
      "byteOffset": 77528,
      "componentType": 5126,
      "count": 1138,
      "max": [
        1.0000001192092896,
        1.0
      ],
      "min": [
        0.0,
        0.0
      ],
      "type": "VEC2"
    },
    {
      "bufferView": 0,
      "byteOffset": 80064,
      "componentType": 5125,
      "count": 6048,
      "type": "SCALAR"
    },
    {
      "bufferView": 2,
      "byteOffset": 259896,
      "componentType": 5126,
      "count": 13468,
      "max": [
        0.9990988969802856,
        1.0,
        1.0
      ],
      "min": [
        -0.9990988969802856,
        -1.0,
        -1.0
      ],
      "type": "VEC3"
    },
    {
      "bufferView": 2,
      "byteOffset": 421512,
      "componentType": 5126,
      "count": 13468,
      "max": [
        0.9994183778762817,
        0.9994160532951355,
        0.9985179901123047
      ],
      "min": [
        -0.9994181990623474,
        -0.9994160532951355,
        -0.9985178112983704
      ],
      "type": "VEC3"
    },
    {
      "bufferView": 1,
      "byteOffset": 86632,
      "componentType": 5126,
      "count": 13468,
      "max": [
        1.000000238418579,
        1.0
      ],
      "min": [
        0.0,
        0.0
      ],
      "type": "VEC2"
    },
    {
      "bufferView": 0,
      "byteOffset": 104256,
      "componentType": 5125,
      "count": 19980,
      "type": "SCALAR"
    },
    {
      "bufferView": 2,
      "byteOffset": 583128,
      "componentType": 5126,
      "count": 13468,
      "max": [
        0.9990988969802856,
        1.0,
        1.0
      ],
      "min": [
        -0.9990988969802856,
        -1.0,
        -1.0
      ],
      "type": "VEC3"
    },
    {
      "bufferView": 2,
      "byteOffset": 744744,
      "componentType": 5126,
      "count": 13468,
      "max": [
        0.9994183778762817,
        0.9994160532951355,
        0.9985179901123047
      ],
      "min": [
        -0.9994181990623474,
        -0.9994160532951355,
        -0.9985178112983704
      ],
      "type": "VEC3"
    },
    {
      "bufferView": 1,
      "byteOffset": 194376,
      "componentType": 5126,
      "count": 13468,
      "max": [
        1.000000238418579,
        1.0
      ],
      "min": [
        0.0,
        0.0
      ],
      "type": "VEC2"
    },
    {
      "bufferView": 0,
      "byteOffset": 184176,
      "componentType": 5125,
      "count": 19980,
      "type": "SCALAR"
    },
    {
      "bufferView": 3,
      "componentType": 5126,
      "count": 250,
      "max": [
        4.166666507720947
      ],
      "min": [
        0.01666666753590107
      ],
      "type": "SCALAR"
    },
    {
      "bufferView": 4,
      "componentType": 5126,
      "count": 250,
      "max": [
        0.0,
        0.999980092048645,
        -0.0,
        1.0
      ],
      "min": [
        0.0,
        -0.999980092048645,
        -0.0,
        0.006308319978415966
      ],
      "type": "VEC4"
    },
    {
      "bufferView": 3,
      "byteOffset": 1000,
      "componentType": 5126,
      "count": 250,
      "max": [
        4.166666507720947
      ],
      "min": [
        0.01666666753590107
      ],
      "type": "SCALAR"
    },
    {
      "bufferView": 4,
      "byteOffset": 4000,
      "componentType": 5126,
      "count": 250,
      "max": [
        0.4999900460243225,
        0.0,
        0.4999901056289673,
        1.0
      ],
      "min": [
        -0.4999901056289673,
        -0.99996018409729,
        -0.4999900460243225,
        3.979529356001876e-05
      ],
      "type": "VEC4"
    }
  ],
  "animations": [
    {
      "channels": [
        {
          "sampler": 0,
          "target": {
            "node": 3,
            "path": "rotation"
          }
        },
        {
          "sampler": 1,
          "target": {
            "node": 5,
            "path": "rotation"
          }
        }
      ],
      "name": "Animation",
      "samplers": [
        {
          "input": 20,
          "interpolation": "LINEAR",
          "output": 21
        },
        {
          "input": 22,
          "interpolation": "LINEAR",
          "output": 23
        }
      ]
    }
  ],
  "asset": {
    "extras": {
      "author": "Tycho Magnetic Anomaly (https://sketchfab.com/Tycho_Magnetic_Anomaly)",
      "license": "CC-BY-4.0 (http://creativecommons.org/licenses/by/4.0/)",
      "source": "https://sketchfab.com/3d-models/chromatic-core-a9f0368eb94c475baae30579b704eed8",
      "title": "Chromatic Core"
    },
    "generator": "Sketchfab-15.5.0",
    "version": "2.0"
  },
  "bufferViews": [
    {
      "buffer": 0,
      "byteLength": 264096,
      "name": "floatBufferViews",
      "target": 34963
    },
    {
      "buffer": 0,
      "byteLength": 302120,
      "byteOffset": 264096,
      "byteStride": 8,
      "name": "floatBufferViews",
      "target": 34962
    },
    {
      "buffer": 0,
      "byteLength": 906360,
      "byteOffset": 566216,
      "byteStride": 12,
      "name": "floatBufferViews",
      "target": 34962
    },
    {
      "buffer": 0,
      "byteLength": 2000,
      "byteOffset": 1472576,
      "name": "floatBufferViews"
    },
    {
      "buffer": 0,
      "byteLength": 8000,
      "byteOffset": 1474576,
      "byteStride": 16,
      "name": "floatBufferViews"
    }
  ],
  "buffers": [
    {
      "byteLength": 1482576,
      "uri": "scene.bin"
    }
  ],
  "extensionsUsed": [
    "KHR_materials_clearcoat",
    "KHR_materials_specular",
    "KHR_materials_emissive_strength"
  ],
  "images": [
    {
      "uri": "textures/material_1_emissive.png"
    }
  ],
  "materials": [
    {
      "extensions": {
        "KHR_materials_clearcoat": {
          "clearcoatFactor": 1.0,
          "clearcoatRoughnessFactor": 0.4037467133
        },
        "KHR_materials_specular": {
          "specularColorFactor": [
            1.0,
            1.0,
            1.0
          ],
          "specularFactor": 1.0
        }
      },
      "name": "material",
      "pbrMetallicRoughness": {
        "baseColorFactor": [
          0.8,
          0.8,
          0.8,
          1.0
        ],
        "roughnessFactor": 0.2530090408
      }
    },
    {
      "doubleSided": true,
      "emissiveFactor": [
        1.0,
        1.0,
        1.0
      ],
      "emissiveTexture": {
        "index": 0
      },
      "extensions": {
        "KHR_materials_emissive_strength": {
          "emissiveStrength": 10.0
        }
      },
      "name": "material_1",
      "pbrMetallicRoughness": {
        "baseColorFactor": [
          0.8,
          0.8,
          0.8,
          1.0
        ],
        "metallicFactor": 0.0,
        "roughnessFactor": 0.5
      }
    },
    {
      "doubleSided": true,
      "extensions": {
        "KHR_materials_specular": {
          "specularColorFactor": [
            1.0,
            1.0,
            1.0
          ],
          "specularFactor": 1.0
        }
      },
      "name": "material_2",
      "pbrMetallicRoughness": {
        "baseColorFactor": [
          0.8,
          0.8,
          0.8,
          1.0
        ],
        "roughnessFactor": 0.4288696587
      }
    },
    {
      "extensions": {
        "KHR_materials_specular": {
          "specularColorFactor": [
            1.0,
            1.0,
            1.0
          ],
          "specularFactor": 1.0
        }
      },
      "name": "material_3",
      "pbrMetallicRoughness": {
        "baseColorFactor": [
          0.8,
          0.8,
          0.8,
          1.0
        ],
        "roughnessFactor": 0.629853222
      }
    },
    {
      "extensions": {
        "KHR_materials_specular": {
          "specularColorFactor": [
            1.0,
            1.0,
            1.0
          ],
          "specularFactor": 1.0
        }
      },
      "name": "material_4",
      "pbrMetallicRoughness": {
        "baseColorFactor": [
          0.8,
          0.8,
          0.8,
          1.0
        ],
        "roughnessFactor": 0.6863798492
      }
    }
  ],
  "meshes": [
    {
      "name": "Object_0",
      "primitives": [
        {
          "attributes": {
            "NORMAL": 1,
            "POSITION": 0,
            "TEXCOORD_0": 2
          },
          "indices": 3,
          "material": 0,
          "mode": 4
        }
      ]
    },
    {
      "name": "Object_1",
      "primitives": [
        {
          "attributes": {
            "NORMAL": 5,
            "POSITION": 4,
            "TEXCOORD_0": 6
          },
          "indices": 7,
          "material": 1,
          "mode": 4
        }
      ]
    },
    {
      "name": "Object_2",
      "primitives": [
        {
          "attributes": {
            "NORMAL": 9,
            "POSITION": 8,
            "TEXCOORD_0": 10
          },
          "indices": 11,
          "material": 2,
          "mode": 4
        }
      ]
    },
    {
      "name": "Object_3",
      "primitives": [
        {
          "attributes": {
            "NORMAL": 13,
            "POSITION": 12,
            "TEXCOORD_0": 14
          },
          "indices": 15,
          "material": 3,
          "mode": 4
        }
      ]
    },
    {
      "name": "Object_4",
      "primitives": [
        {
          "attributes": {
            "NORMAL": 17,
            "POSITION": 16,
            "TEXCOORD_0": 18
          },
          "indices": 19,
          "material": 4,
          "mode": 4
        }
      ]
    }
  ],
  "nodes": [
    {
      "children": [
        1
      ],
      "matrix": [
        1.0,
        0.0,
        0.0,
        0.0,
        0.0,
        2.220446049250313e-16,
        -1.0,
        0.0,
        0.0,
        1.0,
        2.220446049250313e-16,
        0.0,
        0.0,
        0.0,
        0.0,
        1.0
      ],
      "name": "Sketchfab_model"
    },
    {
      "children": [
        2
      ],
      "name": "root"
    },
    {
      "children": [
        3,
        5,
        7,
        9,
        11
      ],
      "matrix": [
        1.0,
        0.0,
        0.0,
        0.0,
        0.0,
        2.220446049250313e-16,
        1.0,
        0.0,
        0.0,
        -1.0,
        2.220446049250313e-16,
        0.0,
        0.0,
        0.0,
        0.0,
        1.0
      ],
      "name": "GLTF_SceneRootNode"
    },
    {
      "children": [
        4
      ],
      "name": "Sphere_0"
    },
    {
      "mesh": 0,
      "name": "Object_4"
    },
    {
      "children": [
        6
      ],
      "name": "Torus_1",
      "scale": [
        0.42330461740493774,
        0.42330461740493774,
        0.42330461740493774
      ]
    },
    {
      "mesh": 1,
      "name": "Object_6"
    },
    {
      "children": [
        8
      ],
      "matrix": [
        -0.26529160141944885,
        -0.0,
        -0.0,
        -0.0,
        -0.0,
        -0.26529160141944885,
        -0.0,
        -0.0,
        -0.0,
        -0.0,
        -0.26529160141944885,
        -0.0,
        0.0,
        0.0,
        0.0,
        1.0
      ],
      "name": "Sphere.001_2"
    },
    {
      "mesh": 2,
      "name": "Object_8"
    },
    {
      "children": [
        10
      ],
      "matrix": [
        1.2411268949508667,
        0.0,
        0.0,
        0.0,
        0.0,
        1.2411268949508667,
        0.0,
        0.0,
        0.0,
        0.0,
        1.2411268949508667,
        0.0,
        0.0,
        0.0,
        0.0,
        1.0
      ],
      "name": "Sphere.003_3"
    },
    {
      "mesh": 3,
      "name": "Object_10"
    },
    {
      "children": [
        12
      ],
      "matrix": [
        1.6607123613357544,
        0.0,
        0.0,
        0.0,
        0.0,
        1.6607123613357544,
        0.0,
        0.0,
        0.0,
        0.0,
        1.6607123613357544,
        0.0,
        0.0,
        0.0,
        0.0,
        1.0
      ],
      "name": "Sphere.002_4"
    },
    {
      "mesh": 4,
      "name": "Object_12"
    }
  ],
  "samplers": [
    {
      "magFilter": 9729,
      "minFilter": 9987,
      "wrapS": 10497,
      "wrapT": 10497
    }
  ],
  "scene": 0,
  "scenes": [
    {
      "name": "Sketchfab_Scene",
      "nodes": [
        0
      ]
    }
  ],
  "textures": [
    {
      "sampler": 0,
      "source": 0
    }
  ]
}
